# xmcd CD database file
# Copyright (C) 1996 Ti Kan
#
# Track frame offsets:
#  150
#  15985
#  28217
#  40252
#  53310
#  60627
#  78555
#  91147
#  109952
#  123380
#
# Disc length: 1834 seconds
#
# Revision: 1
# Processed by: cddbd v1.4b41PL1 Copyright (c) Steve Scherf et al.
# Submitted via: CDWizzard Release:4.12
#
DISCID=7407280a
DTITLE=Johnny Cash - Johnny Cash Patriot
DYEAR=1900
DGENRE=
TTITLE0=Song of the Patriot
TTITLE1=Paul Revere
TTITLE2=Gettysburg Address
TTITLE3=Man in Black
TTITLE4=From Sea to Shining Sea
TTITLE5=Mr Garfield
TTITLE6=Sold Out of Flag Poles
TTITLE7=The Ballad of Ira Hayes
TTITLE8=Singing in Vietnam Talking Blues
TTITLE9=Ragged Old Flag
EXTD=
EXTT0=
EXTT1=
EXTT2=
EXTT3=
EXTT4=
EXTT5=
EXTT6=
EXTT7=
EXTT8=
EXTT9=
PLAYORDER=
